<svg width="96" height="64" viewBox="0 0 96 64" fill="none" xmlns="http://www.w3.org/2000/svg">
<rect opacity="0.05" width="96" height="64" rx="8" fill="#E0E0E0"/>
<g clip-path="url(#clip0_40_10284)">
<path d="M67.4019 36.8365C64.7298 47.5565 53.8687 54.0731 43.164 51.4008C32.4437 48.7286 25.9271 37.8679 28.5994 27.1634C31.2716 16.4434 42.1169 9.92685 52.8373 12.5992C63.5419 15.2558 70.0743 26.1164 67.4019 36.8365Z" fill="#E0E0E0"/>
<path d="M57.5234 29.5078C57.9141 26.8516 55.8984 25.4141 53.1172 24.4609L54.0234 20.8516L51.8359 20.3047L50.9609 23.8203C50.3828 23.6797 49.7891 23.5391 49.1953 23.4141L50.0703 19.8828L47.8828 19.3359L46.9922 22.9297C46.5078 22.8203 46.0391 22.7109 45.5859 22.6016V22.5859L42.5547 21.8359L41.9766 24.1797C41.9766 24.1797 43.6016 24.5547 43.5703 24.5703C44.4609 24.7891 44.6172 25.3828 44.5859 25.8516L43.5547 29.9609C43.6172 29.9766 43.6953 29.9922 43.7891 30.0391C43.7109 30.0234 43.6328 30.0078 43.5547 29.9766L42.1172 35.7266C42.0078 35.9922 41.7266 36.3984 41.1172 36.2422C41.1328 36.2734 39.5234 35.8516 39.5234 35.8516L38.4297 38.3672L41.2891 39.0859C41.8203 39.2266 42.3359 39.3516 42.8516 39.4922L41.9453 43.1328L44.1328 43.6797L45.0391 40.0703C45.6328 40.2266 46.2266 40.3828 46.7891 40.5234L45.8984 44.1172L48.0859 44.6641L48.9922 41.0234C52.7422 41.7266 55.5547 41.4453 56.7266 38.0547C57.6797 35.3359 56.6797 33.7578 54.7109 32.7266C56.1641 32.3984 57.2422 31.4453 57.5234 29.5078ZM52.5078 36.5391C51.8359 39.2578 47.2422 37.7891 45.7578 37.4141L46.9609 32.5859C48.4453 32.9609 53.2266 33.6953 52.5078 36.5391ZM53.1953 29.4609C52.5703 31.9453 48.7578 30.6797 47.5234 30.3672L48.6172 25.9922C49.8516 26.3047 53.8359 26.8828 53.1953 29.4609Z" fill="#0D0D2B"/>
</g>
<defs>
<clipPath id="clip0_40_10284">
<rect width="40" height="40" fill="white" transform="translate(28 12)"/>
</clipPath>
</defs>
</svg>
