<?xml version="1.0" encoding="utf-8"?>
<!-- Svg Vector Icons : http://www.onlinewebfonts.com/icon -->
<!DOCTYPE svg PUBLIC "-//W3C//DTD SVG 1.1//EN" "http://www.w3.org/Graphics/SVG/1.1/DTD/svg11.dtd">
<svg version="1.1" xmlns="http://www.w3.org/2000/svg" xmlns:xlink="http://www.w3.org/1999/xlink" x="0px" y="0px" viewBox="0 0 1000 1000" enable-background="new 0 0 1000 1000" xml:space="preserve">
<metadata> Svg Vector Icons : http://www.onlinewebfonts.com/icon </metadata>
<g><path d="M824.7,243.3H673.1V93c0-45.7-37.2-83-83-83H175.3c-45.7,0-83,37.2-83,83V907c0,45.7,37.2,83,83,83h414.8c0.4,0,0.8,0,1.2,0v0h233.3c45.7,0,83-37.2,83-83l0-580.7C907.7,280.6,870.4,243.3,824.7,243.3z M175.3,927.8c-11.4,0-20.7-9.3-20.7-20.7V93c0-11.4,9.3-20.7,20.7-20.7h414.8c11.4,0,20.7,9.3,20.7,20.7V907c0,11.4-9.3,20.7-20.7,20.7H175.3L175.3,927.8z M845.4,907c0,11.4-9.3,20.7-20.7,20.7H670.5c1.7-6.6,2.6-13.6,2.6-20.7V305.6h151.6c11.4,0,20.7,9.3,20.7,20.7L845.4,907L845.4,907z"/><path d="M258.4,190.2h62.2v62.2h-62.2V190.2z"/><path d="M439.6,190.2h62.2v62.2h-62.2V190.2z"/><path d="M258.4,374.3h62.2v62.2h-62.2V374.3z"/><path d="M444.8,374.3H507v62.2h-62.2V374.3z"/><path d="M258.4,563.5h62.2v62.2h-62.2V563.5z"/><path d="M444.8,563.5H507v62.2h-62.2V563.5z"/><path d="M258.4,747.6h62.2v62.2h-62.2V747.6z"/><path d="M444.8,747.6H507v62.2h-62.2V747.6z"/></g>
</svg>