<svg width="156" height="25" viewBox="0 0 156 25" fill="none" xmlns="http://www.w3.org/2000/svg">
<path d="M0.792 9.552C0.792 7.888 1.152 6.408 1.872 5.112C2.592 3.8 3.592 2.784 4.872 2.064C6.168 1.328 7.632 0.959999 9.264 0.959999C11.264 0.959999 12.976 1.488 14.4 2.544C15.824 3.6 16.776 5.04 17.256 6.864H12.744C12.408 6.16 11.928 5.624 11.304 5.256C10.696 4.888 10 4.704 9.216 4.704C7.952 4.704 6.928 5.144 6.144 6.024C5.36 6.904 4.968 8.08 4.968 9.552C4.968 11.024 5.36 12.2 6.144 13.08C6.928 13.96 7.952 14.4 9.216 14.4C10 14.4 10.696 14.216 11.304 13.848C11.928 13.48 12.408 12.944 12.744 12.24H17.256C16.776 14.064 15.824 15.504 14.4 16.56C12.976 17.6 11.264 18.12 9.264 18.12C7.632 18.12 6.168 17.76 4.872 17.04C3.592 16.304 2.592 15.288 1.872 13.992C1.152 12.696 0.792 11.216 0.792 9.552ZM33.4493 4.608L25.0493 24.36H20.6333L23.7053 17.544L18.2572 4.608H22.8413L25.9373 12.984L29.0093 4.608H33.4493ZM39.0373 6.504C39.4213 5.88 39.9733 5.376 40.6933 4.992C41.4133 4.608 42.2373 4.416 43.1653 4.416C44.2693 4.416 45.2693 4.696 46.1653 5.256C47.0613 5.816 47.7653 6.616 48.2773 7.656C48.8053 8.696 49.0693 9.904 49.0693 11.28C49.0693 12.656 48.8053 13.872 48.2773 14.928C47.7653 15.968 47.0613 16.776 46.1653 17.352C45.2693 17.912 44.2693 18.192 43.1653 18.192C42.2213 18.192 41.3973 18.008 40.6933 17.64C39.9893 17.256 39.4373 16.752 39.0373 16.128V18H34.9333V0.24H39.0373V6.504ZM44.8933 11.28C44.8933 10.256 44.6053 9.456 44.0293 8.88C43.4693 8.288 42.7733 7.992 41.9413 7.992C41.1253 7.992 40.4293 8.288 39.8533 8.88C39.2933 9.472 39.0133 10.28 39.0133 11.304C39.0133 12.328 39.2933 13.136 39.8533 13.728C40.4293 14.32 41.1253 14.616 41.9413 14.616C42.7573 14.616 43.4533 14.32 44.0293 13.728C44.6053 13.12 44.8933 12.304 44.8933 11.28ZM63.8464 11.088C63.8464 11.472 63.8224 11.872 63.7744 12.288H54.4864C54.5504 13.12 54.8144 13.76 55.2784 14.208C55.7584 14.64 56.3424 14.856 57.0304 14.856C58.0544 14.856 58.7664 14.424 59.1664 13.56H63.5344C63.3104 14.44 62.9024 15.232 62.3104 15.936C61.7344 16.64 61.0064 17.192 60.1264 17.592C59.2464 17.992 58.2624 18.192 57.1744 18.192C55.8624 18.192 54.6944 17.912 53.6704 17.352C52.6464 16.792 51.8464 15.992 51.2704 14.952C50.6944 13.912 50.4064 12.696 50.4064 11.304C50.4064 9.912 50.6864 8.696 51.2464 7.656C51.8224 6.616 52.6224 5.816 53.6464 5.256C54.6704 4.696 55.8464 4.416 57.1744 4.416C58.4704 4.416 59.6224 4.688 60.6304 5.232C61.6384 5.776 62.4224 6.552 62.9824 7.56C63.5584 8.568 63.8464 9.744 63.8464 11.088ZM59.6464 10.008C59.6464 9.304 59.4064 8.744 58.9264 8.328C58.4464 7.912 57.8464 7.704 57.1264 7.704C56.4384 7.704 55.8544 7.904 55.3744 8.304C54.9104 8.704 54.6224 9.272 54.5104 10.008H59.6464ZM70.1154 6.84C70.5954 6.104 71.1954 5.528 71.9154 5.112C72.6354 4.68 73.4354 4.464 74.3154 4.464V8.808H73.1874C72.1634 8.808 71.3954 9.032 70.8834 9.48C70.3714 9.912 70.1154 10.68 70.1154 11.784V18H66.0114V4.608H70.1154V6.84ZM81.7251 18.192C80.5571 18.192 79.5171 17.992 78.6051 17.592C77.6931 17.192 76.9731 16.648 76.4451 15.96C75.9171 15.256 75.6211 14.472 75.5571 13.608H79.6131C79.6611 14.072 79.8771 14.448 80.2611 14.736C80.6451 15.024 81.1171 15.168 81.6771 15.168C82.1891 15.168 82.5811 15.072 82.8531 14.88C83.1411 14.672 83.2851 14.408 83.2851 14.088C83.2851 13.704 83.0851 13.424 82.6851 13.248C82.2851 13.056 81.6371 12.848 80.7411 12.624C79.7811 12.4 78.9811 12.168 78.3411 11.928C77.7011 11.672 77.1491 11.28 76.6851 10.752C76.2211 10.208 75.9891 9.48 75.9891 8.568C75.9891 7.8 76.1971 7.104 76.6131 6.48C77.0451 5.84 77.6691 5.336 78.4851 4.968C79.3171 4.6 80.3011 4.416 81.4371 4.416C83.1171 4.416 84.4371 4.832 85.3971 5.664C86.3731 6.496 86.9331 7.6 87.0771 8.976H83.2851C83.2211 8.512 83.0131 8.144 82.6611 7.872C82.3251 7.6 81.8771 7.464 81.3171 7.464C80.8371 7.464 80.4691 7.56 80.2131 7.752C79.9571 7.928 79.8291 8.176 79.8291 8.496C79.8291 8.88 80.0291 9.168 80.4291 9.36C80.8451 9.552 81.4851 9.744 82.3491 9.936C83.3411 10.192 84.1491 10.448 84.7731 10.704C85.3971 10.944 85.9411 11.344 86.4051 11.904C86.8851 12.448 87.1331 13.184 87.1491 14.112C87.1491 14.896 86.9251 15.6 86.4771 16.224C86.0451 16.832 85.4131 17.312 84.5811 17.664C83.7651 18.016 82.8131 18.192 81.7251 18.192ZM88.8439 11.304C88.8439 9.912 89.1239 8.696 89.6839 7.656C90.2599 6.616 91.0519 5.816 92.0599 5.256C93.0839 4.696 94.2519 4.416 95.5639 4.416C97.2439 4.416 98.6439 4.856 99.7639 5.736C100.9 6.616 101.644 7.856 101.996 9.456H97.6279C97.2599 8.432 96.5479 7.92 95.4919 7.92C94.7399 7.92 94.1399 8.216 93.6919 8.808C93.2439 9.384 93.0199 10.216 93.0199 11.304C93.0199 12.392 93.2439 13.232 93.6919 13.824C94.1399 14.4 94.7399 14.688 95.4919 14.688C96.5479 14.688 97.2599 14.176 97.6279 13.152H101.996C101.644 14.72 100.9 15.952 99.7639 16.848C98.6279 17.744 97.2279 18.192 95.5639 18.192C94.2519 18.192 93.0839 17.912 92.0599 17.352C91.0519 16.792 90.2599 15.992 89.6839 14.952C89.1239 13.912 88.8439 12.696 88.8439 11.304ZM103.375 11.28C103.375 9.904 103.631 8.696 104.143 7.656C104.671 6.616 105.383 5.816 106.279 5.256C107.175 4.696 108.175 4.416 109.279 4.416C110.223 4.416 111.047 4.608 111.751 4.992C112.471 5.376 113.023 5.88 113.407 6.504V4.608H117.511V18H113.407V16.104C113.007 16.728 112.447 17.232 111.727 17.616C111.023 18 110.199 18.192 109.255 18.192C108.167 18.192 107.175 17.912 106.279 17.352C105.383 16.776 104.671 15.968 104.143 14.928C103.631 13.872 103.375 12.656 103.375 11.28ZM113.407 11.304C113.407 10.28 113.119 9.472 112.543 8.88C111.983 8.288 111.295 7.992 110.479 7.992C109.663 7.992 108.967 8.288 108.391 8.88C107.831 9.456 107.551 10.256 107.551 11.28C107.551 12.304 107.831 13.12 108.391 13.728C108.967 14.32 109.663 14.616 110.479 14.616C111.295 14.616 111.983 14.32 112.543 13.728C113.119 13.136 113.407 12.328 113.407 11.304ZM124.584 0.24V18H120.48V0.24H124.584ZM140.182 11.088C140.182 11.472 140.158 11.872 140.11 12.288H130.822C130.886 13.12 131.15 13.76 131.614 14.208C132.094 14.64 132.678 14.856 133.366 14.856C134.39 14.856 135.102 14.424 135.502 13.56H139.87C139.646 14.44 139.238 15.232 138.646 15.936C138.07 16.64 137.342 17.192 136.462 17.592C135.582 17.992 134.598 18.192 133.51 18.192C132.198 18.192 131.03 17.912 130.006 17.352C128.982 16.792 128.182 15.992 127.606 14.952C127.03 13.912 126.742 12.696 126.742 11.304C126.742 9.912 127.022 8.696 127.582 7.656C128.158 6.616 128.958 5.816 129.982 5.256C131.006 4.696 132.182 4.416 133.51 4.416C134.806 4.416 135.958 4.688 136.966 5.232C137.974 5.776 138.758 6.552 139.318 7.56C139.894 8.568 140.182 9.744 140.182 11.088ZM135.982 10.008C135.982 9.304 135.742 8.744 135.262 8.328C134.782 7.912 134.182 7.704 133.462 7.704C132.774 7.704 132.19 7.904 131.71 8.304C131.246 8.704 130.958 9.272 130.846 10.008H135.982ZM141.531 11.28C141.531 9.904 141.787 8.696 142.299 7.656C142.827 6.616 143.539 5.816 144.435 5.256C145.331 4.696 146.331 4.416 147.435 4.416C148.315 4.416 149.115 4.6 149.835 4.968C150.571 5.336 151.147 5.832 151.563 6.456V0.24H155.667V18H151.563V16.08C151.179 16.72 150.627 17.232 149.907 17.616C149.203 18 148.379 18.192 147.435 18.192C146.331 18.192 145.331 17.912 144.435 17.352C143.539 16.776 142.827 15.968 142.299 14.928C141.787 13.872 141.531 12.656 141.531 11.28ZM151.563 11.304C151.563 10.28 151.275 9.472 150.699 8.88C150.139 8.288 149.451 7.992 148.635 7.992C147.819 7.992 147.123 8.288 146.547 8.88C145.987 9.456 145.707 10.256 145.707 11.28C145.707 12.304 145.987 13.12 146.547 13.728C147.123 14.32 147.819 14.616 148.635 14.616C149.451 14.616 150.139 14.32 150.699 13.728C151.275 13.136 151.563 12.328 151.563 11.304Z" fill="white"/>
</svg>
