<svg width="182" height="33" viewBox="0 0 182 33" fill="none" xmlns="http://www.w3.org/2000/svg">
<path d="M16.0423 23.5877L24.3041 28.5741L22.1116 19.176L29.4109 12.8527L19.7989 12.0372L16.0423 3.17383L12.2857 12.0372L2.67371 12.8527L9.97295 19.176L7.7805 28.5741L16.0423 23.5877Z" fill="#F8A401"/>
<path d="M53.4743 23.5877L61.7361 28.5741L59.5436 19.176L66.8429 12.8527L57.2309 12.0372L53.4743 3.17383L49.7177 12.0372L40.1057 12.8527L47.405 19.176L45.2125 28.5741L53.4743 23.5877Z" fill="#F8A401"/>
<path d="M90.9063 23.5877L99.1681 28.5741L96.9756 19.176L104.275 12.8527L94.6629 12.0372L90.9063 3.17383L87.1497 12.0372L77.5377 12.8527L84.837 19.176L82.6445 28.5741L90.9063 23.5877Z" fill="#F8A401"/>
<path d="M141.707 12.8527L132.095 12.0238L128.338 3.17383L124.582 12.0372L114.97 12.8527L122.269 19.176L120.077 28.5741L128.338 23.5877L136.6 28.5741L134.421 19.176L141.707 12.8527ZM128.338 21.0877V8.65495L130.624 14.0559L136.48 14.5639L132.042 18.414L133.378 24.1358L128.338 21.0877Z" fill="#F8A401"/>
<path d="M179.139 12.8527L169.527 12.0238L165.77 3.17383L162.014 12.0372L152.402 12.8527L159.701 19.176L157.509 28.5741L165.77 23.5877L174.032 28.5741L171.853 19.176L179.139 12.8527ZM165.77 21.0877L160.744 24.1224L162.081 18.4006L157.642 14.5505L163.498 14.0425L165.77 8.65495L168.056 14.0559L173.912 14.5639L169.474 18.414L170.81 24.1358L165.77 21.0877Z" fill="#F8A401"/>
</svg>
