<svg width="24" height="25" viewBox="0 0 24 25" fill="none" xmlns="http://www.w3.org/2000/svg">
<path d="M17.34 5.78422C17.1027 5.78422 16.8707 5.8546 16.6733 5.98646C16.476 6.11831 16.3222 6.30573 16.2313 6.525C16.1405 6.74427 16.1168 6.98555 16.1631 7.21833C16.2094 7.4511 16.3236 7.66492 16.4915 7.83275C16.6593 8.00057 16.8731 8.11486 17.1059 8.16116C17.3387 8.20746 17.5799 8.1837 17.7992 8.09287C18.0185 8.00205 18.2059 7.84824 18.3378 7.6509C18.4696 7.45356 18.54 7.22156 18.54 6.98422C18.54 6.66596 18.4136 6.36073 18.1885 6.13569C17.9635 5.91065 17.6583 5.78422 17.34 5.78422ZM21.94 8.20422C21.9206 7.37452 21.7652 6.55362 21.48 5.77422C21.2257 5.10735 20.83 4.5035 20.32 4.00422C19.8248 3.49164 19.2196 3.0984 18.55 2.85422C17.7727 2.56038 16.9508 2.40143 16.12 2.38422C15.06 2.32422 14.72 2.32422 12 2.32422C9.28 2.32422 8.94 2.32422 7.88 2.38422C7.04915 2.40143 6.22734 2.56038 5.45 2.85422C4.78168 3.10087 4.17693 3.49378 3.68 4.00422C3.16743 4.4994 2.77418 5.10466 2.53 5.77422C2.23616 6.55156 2.07721 7.37337 2.06 8.20422C2 9.26422 2 9.60422 2 12.3242C2 15.0442 2 15.3842 2.06 16.4442C2.07721 17.2751 2.23616 18.0969 2.53 18.8742C2.77418 19.5438 3.16743 20.149 3.68 20.6442C4.17693 21.1547 4.78168 21.5476 5.45 21.7942C6.22734 22.0881 7.04915 22.247 7.88 22.2642C8.94 22.3242 9.28 22.3242 12 22.3242C14.72 22.3242 15.06 22.3242 16.12 22.2642C16.9508 22.247 17.7727 22.0881 18.55 21.7942C19.2196 21.55 19.8248 21.1568 20.32 20.6442C20.8322 20.1468 21.2283 19.5424 21.48 18.8742C21.7652 18.0948 21.9206 17.2739 21.94 16.4442C21.94 15.3842 22 15.0442 22 12.3242C22 9.60422 22 9.26422 21.94 8.20422ZM20.14 16.3242C20.1327 16.959 20.0178 17.5879 19.8 18.1842C19.6403 18.6194 19.3839 19.0126 19.05 19.3342C18.7256 19.6647 18.3332 19.9207 17.9 20.0842C17.3037 20.302 16.6748 20.4169 16.04 20.4242C15.04 20.4742 14.67 20.4842 12.04 20.4842C9.41 20.4842 9.04 20.4842 8.04 20.4242C7.38089 20.4366 6.72459 20.3351 6.1 20.1242C5.68578 19.9523 5.31136 19.697 5 19.3742C4.66809 19.053 4.41484 18.6594 4.26 18.2242C4.01586 17.6194 3.88044 16.9762 3.86 16.3242C3.86 15.3242 3.8 14.9542 3.8 12.3242C3.8 9.69422 3.8 9.32422 3.86 8.32422C3.86448 7.67527 3.98295 7.03216 4.21 6.42422C4.38605 6.00213 4.65627 5.62588 5 5.32422C5.30381 4.98039 5.67929 4.70731 6.1 4.52422C6.70955 4.30426 7.352 4.1893 8 4.18422C9 4.18422 9.37 4.12422 12 4.12422C14.63 4.12422 15 4.12422 16 4.18422C16.6348 4.1915 17.2637 4.30647 17.86 4.52422C18.3144 4.69287 18.7223 4.96707 19.05 5.32422C19.3777 5.6314 19.6338 6.00695 19.8 6.42422C20.0223 7.03315 20.1373 7.676 20.14 8.32422C20.19 9.32422 20.2 9.69422 20.2 12.3242C20.2 14.9542 20.19 15.3242 20.14 16.3242ZM12 7.19422C10.9858 7.1962 9.99496 7.49874 9.15265 8.06364C8.31035 8.62853 7.65438 9.43042 7.26763 10.368C6.88089 11.3055 6.78072 12.3367 6.97979 13.3311C7.17886 14.3256 7.66824 15.2388 8.38608 15.9552C9.10392 16.6716 10.018 17.1592 11.0129 17.3564C12.0077 17.5535 13.0387 17.4513 13.9755 17.0628C14.9123 16.6742 15.7129 16.0167 16.2761 15.1733C16.8394 14.3298 17.14 13.3384 17.14 12.3242C17.1413 11.6493 17.0092 10.9808 16.7512 10.3572C16.4933 9.73352 16.1146 9.16703 15.6369 8.69027C15.1592 8.21351 14.5919 7.8359 13.9678 7.57915C13.3436 7.3224 12.6749 7.19158 12 7.19422ZM12 15.6542C11.3414 15.6542 10.6976 15.4589 10.15 15.093C9.60234 14.7271 9.17552 14.207 8.92348 13.5986C8.67144 12.9901 8.6055 12.3205 8.73398 11.6746C8.86247 11.0286 9.17963 10.4353 9.64533 9.96955C10.111 9.50384 10.7044 9.18669 11.3503 9.0582C11.9963 8.92972 12.6659 8.99566 13.2743 9.2477C13.8828 9.49974 14.4029 9.92655 14.7688 10.4742C15.1347 11.0218 15.33 11.6656 15.33 12.3242C15.33 12.7615 15.2439 13.1945 15.0765 13.5986C14.9092 14.0026 14.6639 14.3697 14.3547 14.6789C14.0454 14.9881 13.6784 15.2334 13.2743 15.4007C12.8703 15.5681 12.4373 15.6542 12 15.6542Z" fill="white"/>
</svg>
