<svg width="24" height="25" viewBox="0 0 24 25" fill="none" xmlns="http://www.w3.org/2000/svg">
<path d="M20.4686 2.32436H3.52859C3.33817 2.32171 3.14909 2.35661 2.97216 2.42704C2.79522 2.49748 2.6339 2.60208 2.49739 2.73487C2.36089 2.86766 2.25188 3.02604 2.17659 3.20097C2.1013 3.37589 2.0612 3.56394 2.05859 3.75436V20.8944C2.0612 21.0848 2.1013 21.2728 2.17659 21.4477C2.25188 21.6227 2.36089 21.7811 2.49739 21.9138C2.6339 22.0466 2.79522 22.1512 2.97216 22.2217C3.14909 22.2921 3.33817 22.327 3.52859 22.3244H20.4686C20.659 22.327 20.8481 22.2921 21.025 22.2217C21.202 22.1512 21.3633 22.0466 21.4998 21.9138C21.6363 21.7811 21.7453 21.6227 21.8206 21.4477C21.8959 21.2728 21.936 21.0848 21.9386 20.8944V3.75436C21.936 3.56394 21.8959 3.37589 21.8206 3.20097C21.7453 3.02604 21.6363 2.86766 21.4998 2.73487C21.3633 2.60208 21.202 2.49748 21.025 2.42704C20.8481 2.35661 20.659 2.32171 20.4686 2.32436ZM8.08859 19.0644H5.08859V10.0644H8.08859V19.0644ZM6.58859 8.80436C6.17486 8.80436 5.77806 8.64 5.48551 8.34745C5.19295 8.05489 5.02859 7.6581 5.02859 7.24436C5.02859 6.83062 5.19295 6.43383 5.48551 6.14127C5.77806 5.84872 6.17486 5.68436 6.58859 5.68436C6.80829 5.65944 7.03077 5.68121 7.24147 5.74824C7.45217 5.81527 7.64633 5.92605 7.81125 6.07332C7.97617 6.22059 8.10812 6.40104 8.19846 6.60284C8.28881 6.80464 8.33551 7.02325 8.33551 7.24436C8.33551 7.46546 8.28881 7.68407 8.19846 7.88588C8.10812 8.08768 7.97617 8.26813 7.81125 8.4154C7.64633 8.56267 7.45217 8.67345 7.24147 8.74048C7.03077 8.8075 6.80829 8.82927 6.58859 8.80436ZM18.9086 19.0644H15.9086V14.2344C15.9086 13.0244 15.4786 12.2344 14.3886 12.2344C14.0513 12.2368 13.7228 12.3426 13.4474 12.5375C13.1721 12.7324 12.9631 13.007 12.8486 13.3244C12.7703 13.5594 12.7364 13.8069 12.7486 14.0544V19.0544H9.74859C9.74859 19.0544 9.74859 10.8744 9.74859 10.0544H12.7486V11.3244C13.0211 10.8515 13.4175 10.4619 13.895 10.1976C14.3726 9.93324 14.9132 9.80421 15.4586 9.82436C17.4586 9.82436 18.9086 11.1144 18.9086 13.8844V19.0644Z" fill="white"/>
</svg>
