<svg width="96" height="64" viewBox="0 0 96 64" fill="none" xmlns="http://www.w3.org/2000/svg">
<rect opacity="0.05" width="96" height="64" rx="8" fill="#E0E0E0"/>
<path d="M41.4922 20.2266H54.4578V43.9529H41.4922V20.2266Z" fill="#BDBDBD"/>
<path d="M42.3167 32.091C42.3167 27.2703 44.5393 22.9945 47.9556 20.2277C45.4449 18.2156 42.2756 17 38.8181 17C30.6268 17 24 23.7489 24 32.091C24 40.4328 30.6268 47.1819 38.8179 47.1819C42.2754 47.1819 45.4447 45.9663 47.9556 43.954C44.5393 41.2293 42.3167 36.9116 42.3167 32.091Z" fill="#828282"/>
<path d="M71.9517 32.091C71.9517 40.4328 65.3248 47.1819 57.1337 47.1819C53.6762 47.1819 50.5069 45.9663 47.9961 43.954C51.4536 41.1875 53.6352 36.9116 53.6352 32.091C53.6352 27.2703 51.4123 22.9945 47.9961 20.2277C50.5067 18.2156 53.6762 17 57.1337 17C65.3248 17 71.9518 23.7909 71.9518 32.091H71.9517Z" fill="#E0E0E0"/>
</svg>
