<svg width="50" height="617" viewBox="0 0 50 617" fill="none" xmlns="http://www.w3.org/2000/svg">
<path d="M24.5 28V601" stroke="#F9F9F9"/>
<rect width="50" height="50" rx="25" fill="#084C94"/>
<path d="M24.3044 34V19.825H24.2794L19.9044 23.825L18.7294 20.925L24.3044 15.75H27.9044V34H24.3044Z" fill="white"/>
<rect y="286" width="50" height="50" rx="25" fill="#084C94"/>
<path d="M19.0294 317.175C21.3127 315.392 23.0627 313.9 24.2794 312.7C25.5127 311.483 26.3377 310.475 26.7544 309.675C27.1711 308.875 27.3794 308.042 27.3794 307.175C27.3794 305.325 26.3877 304.4 24.4044 304.4C23.0044 304.4 21.4127 304.975 19.6294 306.125L18.7044 303.325C19.5377 302.758 20.5044 302.317 21.6044 302C22.7211 301.667 23.8211 301.5 24.9044 301.5C26.8544 301.5 28.3544 301.975 29.4044 302.925C30.4711 303.858 31.0044 305.158 31.0044 306.825C31.0044 308.392 30.5044 309.9 29.5044 311.35C28.5211 312.8 26.5877 314.725 23.7044 317.125V317.175H31.0294V320H19.0294V317.175Z" fill="white"/>
<rect y="567" width="50" height="50" rx="25" fill="#084C94"/>
<path d="M18.9794 582.75H30.6794V585.575L25.5544 590.225V590.275H25.9794C27.5127 590.275 28.7211 590.717 29.6044 591.6C30.4877 592.467 30.9294 593.683 30.9294 595.25C30.9294 597.167 30.3461 598.65 29.1794 599.7C28.0127 600.733 26.3461 601.25 24.1794 601.25C22.2294 601.25 20.4544 600.808 18.8544 599.925L19.7544 597.175C21.3044 598.008 22.7294 598.425 24.0294 598.425C25.1294 598.425 25.9794 598.158 26.5794 597.625C27.1794 597.092 27.4794 596.317 27.4794 595.3C27.4794 594.367 27.1377 593.7 26.4544 593.3C25.7877 592.883 24.6044 592.675 22.9044 592.675H21.4044V590.175L26.4044 585.625V585.575H18.9794V582.75Z" fill="white"/>
</svg>
