<svg width="24" height="25" viewBox="0 0 24 25" fill="none" xmlns="http://www.w3.org/2000/svg">
<path d="M22 6.12443C21.2483 6.45052 20.4534 6.66609 19.64 6.76443C20.4982 6.25175 21.1413 5.44521 21.45 4.49443C20.6436 4.97449 19.7608 5.31273 18.84 5.49443C18.2245 4.827 17.405 4.38272 16.5098 4.23128C15.6147 4.07983 14.6945 4.22979 13.8938 4.65762C13.093 5.08545 12.4569 5.76696 12.0852 6.59526C11.7135 7.42357 11.6273 8.35182 11.84 9.23443C10.2094 9.15195 8.61444 8.72738 7.15865 7.98829C5.70287 7.2492 4.41885 6.21212 3.39 4.94443C3.02914 5.5746 2.83952 6.28825 2.84 7.01443C2.83872 7.68881 3.00422 8.35304 3.32176 8.94799C3.63929 9.54294 4.09902 10.0501 4.66 10.4244C4.00798 10.4067 3.36989 10.2317 2.8 9.91443V9.96443C2.80489 10.9093 3.13599 11.8235 3.73731 12.5524C4.33864 13.2813 5.17326 13.7801 6.1 13.9644C5.74326 14.073 5.37287 14.1302 5 14.1344C4.74189 14.1314 4.48442 14.108 4.23 14.0644C4.49391 14.8772 5.00462 15.5876 5.69107 16.0966C6.37753 16.6056 7.20558 16.888 8.06 16.9044C6.6172 18.0397 4.83588 18.6593 3 18.6644C2.66574 18.6655 2.33174 18.6455 2 18.6044C3.87443 19.8147 6.05881 20.4572 8.29 20.4544C9.82969 20.4704 11.3571 20.1794 12.7831 19.5985C14.2091 19.0176 15.505 18.1583 16.5952 17.0709C17.6854 15.9835 18.548 14.6898 19.1326 13.2653C19.7172 11.8408 20.012 10.3142 20 8.77443C20 8.60443 20 8.42443 20 8.24443C20.7847 7.65924 21.4615 6.94185 22 6.12443Z" fill="white"/>
</svg>
