<svg width="96" height="64" viewBox="0 0 96 64" fill="none" xmlns="http://www.w3.org/2000/svg">
<rect opacity="0.05" width="96" height="64" rx="8" fill="#E0E0E0"/>
<g clip-path="url(#clip0_40_10295)">
<path d="M58.8932 24.6554C57.7777 24.2133 56.5985 23.9914 55.4113 24.0003C51.5719 24.0003 48.8603 26.104 48.8411 29.1238C48.8171 31.3424 50.768 32.5926 52.2438 33.3339C53.7579 34.096 54.2643 34.5763 54.2595 35.2575C54.2499 36.2937 53.05 36.7635 51.9342 36.7635C50.4008 36.7635 49.5634 36.5312 48.2748 35.9492L47.7972 35.7064L47.2525 39.183C48.186 39.6059 49.8681 39.9687 51.6055 40C55.6872 40 58.3556 37.9093 58.3868 34.6963C58.4204 32.9241 57.3646 31.5851 55.1425 30.4785C53.7915 29.7607 52.9541 29.2804 52.9541 28.5522C52.9541 27.9075 53.6715 27.2185 55.1713 27.2185C56.1695 27.1922 57.1614 27.3959 58.0821 27.8162L58.442 27.9911L58.9868 24.6319L58.8932 24.6554ZM68.8565 24.2821H65.8569C64.9235 24.2821 64.2204 24.5614 63.8124 25.5689L58.0437 39.7834H62.1255L62.9414 37.4526L67.923 37.4578C68.0406 38.0033 68.4005 39.7834 68.4005 39.7834H72L68.8565 24.2821ZM43.3195 24.1516H47.2093L44.7761 39.6607H40.8911L43.3195 24.1464V24.1516ZM33.445 32.6996L33.8481 34.8529L37.6492 24.2821H41.7693L35.6479 39.7625H31.5373L28.1778 26.6547C28.1234 26.4386 27.9956 26.2529 27.8202 26.1353C26.6094 25.4549 25.3264 24.9386 24 24.598L24.0528 24.2717H30.3135C31.1629 24.3082 31.8468 24.598 32.0748 25.5846L33.4426 32.7075V32.6996H33.445ZM64.0572 34.2813L65.6074 29.9434C65.5882 29.9904 65.9265 29.0481 66.1233 28.4661L66.3896 29.8051L67.2895 34.2787H64.0548V34.2813H64.0572Z" fill="#E0E0E0"/>
</g>
<defs>
<clipPath id="clip0_40_10295">
<rect width="48" height="48" fill="white" transform="translate(24 8)"/>
</clipPath>
</defs>
</svg>
