<svg width="24" height="25" viewBox="0 0 24 25" fill="none" xmlns="http://www.w3.org/2000/svg">
<path d="M23.001 10.0337C23.0505 8.60237 22.7374 7.18173 22.091 5.90371C21.6524 5.37931 21.0437 5.02542 20.371 4.90371C17.5885 4.65124 14.7945 4.54776 12.001 4.59371C9.21765 4.54567 6.43371 4.64581 3.661 4.89371C3.11282 4.99343 2.60552 5.25056 2.201 5.63371C1.301 6.46371 1.201 7.88371 1.101 9.08371C0.955916 11.2413 0.955916 13.4062 1.101 15.5637C1.12993 16.2391 1.2305 16.9095 1.401 17.5637C1.52158 18.0688 1.76553 18.5361 2.111 18.9237C2.51827 19.3272 3.03739 19.5989 3.601 19.7037C5.75692 19.9698 7.92922 20.0801 10.101 20.0337C13.601 20.0837 16.671 20.0337 20.301 19.7537C20.8785 19.6554 21.4122 19.3833 21.831 18.9737C22.111 18.6936 22.3201 18.3508 22.441 17.9737C22.7986 16.8763 22.9743 15.7278 22.961 14.5737C23.001 14.0137 23.001 10.6337 23.001 10.0337ZM9.741 15.1737V8.98371L15.661 12.0937C14.001 13.0137 11.811 14.0537 9.741 15.1737Z" fill="white"/>
</svg>
